<?xml version="1.0" encoding="UTF-8"?>
<svg version="1.1" xmlns="http://www.w3.org/2000/svg" width="613" height="687" viewBox="0 0 613 687">
<path d="M0 0 C2.02446636 -0.00408235 4.04889564 -0.01159007 6.073349 -0.01981354 C20.76879589 -0.06489994 35.18296213 0.11854486 49.73435974 2.2458725 C51.20383521 2.44730977 52.67348524 2.64747718 54.14329529 2.84645844 C58.57339147 3.45349213 62.99775654 4.09681419 67.42185974 4.7458725 C69.63404398 5.06806128 71.84635329 5.38936791 74.0587616 5.71001434 C75.50666683 5.91992565 76.95446342 6.13058781 78.40214539 6.34203339 C81.89679963 6.84950909 85.392245 7.33690831 88.89549255 7.78151703 C95.10421832 8.57081373 101.10038736 9.36037454 107.10935974 11.1208725 C111.64893213 12.40645679 116.1618721 13.58827489 120.77000427 14.597435 C130.83128895 16.81707808 140.48952276 19.98730868 150.21238708 23.37429047 C152.56366777 24.18688214 154.92190638 24.97277506 157.28514099 25.74977875 C166.51203244 28.82436452 175.09681711 32.62323664 183.68992615 37.17067719 C185.80264646 38.28178541 187.92879438 39.36318731 190.05857849 40.441185 C217.72656566 54.57195252 242.39828647 74.51087027 253.83982849 104.1052475 C258.79179767 120.56531405 256.45077481 138.05149497 248.74412537 153.191185 C229.84020268 187.61432803 190.34458401 207.85546591 154.70530701 220.51174164 C152.4570494 221.34916399 150.25339459 222.27574376 148.03904724 223.1989975 C142.28896134 225.51287698 136.41243459 227.11848581 130.42185974 228.6833725 C129.28321472 228.98412689 128.1445697 229.28488129 126.97142029 229.59474945 C123.56172882 230.48915332 120.14901616 231.37063199 116.73435974 232.2458725 C115.78464294 232.49014984 114.83492615 232.73442719 113.85643005 232.98610687 C53.63616142 248.32129385 -13.05308198 251.37129929 -74.56837463 241.66677094 C-77.42756018 241.22060549 -80.290855 240.81407918 -83.15626526 240.409935 C-140.41328247 232.09268641 -210.25090283 212.29341613 -247.35255432 164.17848969 C-252.8679637 156.70613444 -256.18336209 148.98246501 -259.26564026 140.2458725 C-259.6125592 139.46220306 -259.95947815 138.67853363 -260.31690979 137.87111664 C-264.06107065 127.51060152 -262.52485378 111.4013236 -258.65235901 101.1833725 C-241.8331384 65.55505167 -208.20584973 43.02136392 -172.26564026 29.2458725 C-170.88743943 28.69397475 -169.50989176 28.14044446 -168.13282776 27.58571625 C-158.95606246 23.91283975 -149.82994866 20.78334207 -140.26564026 18.2458725 C-137.98966263 17.61641205 -135.71560817 16.98029898 -133.44166565 16.34352875 C-131.10852309 15.69185873 -128.77324044 15.04837187 -126.43751526 14.40602875 C-124.06335356 13.75117871 -121.70251978 13.07648465 -119.34376526 12.36696625 C-112.81522429 10.43070643 -106.24206364 9.37811996 -99.52027893 8.37258148 C-94.51846092 7.62105377 -89.58852315 6.73308326 -84.64064026 5.6833725 C-76.55002223 4.04130203 -68.4772889 3.00445788 -60.26564026 2.2458725 C-59.34202698 2.15418793 -58.4184137 2.06250336 -57.46681213 1.96804047 C-38.34291751 0.14627681 -19.19450035 0.03036632 0 0 Z " fill="#0B868A" transform="translate(317.26564025878906,64.7541275024414)"/>
<path d="M0 0 C0.01981934 0.83660156 0.03963867 1.67320312 0.06005859 2.53515625 C0.13870107 5.67390346 0.22541003 8.81230086 0.31738281 11.95068359 C0.37396123 13.96305333 0.42144088 15.97567227 0.46875 17.98828125 C0.66904401 24.63136602 0.99232448 30.65220241 3 37 C3.39058594 38.26070313 3.39058594 38.26070313 3.7890625 39.546875 C14.38665769 67.47698569 41.7740978 84.07743022 67.80078125 95.80078125 C82.41094169 102.12245792 97.52438434 107.28445015 113 111 C114.25167969 111.33515625 115.50335938 111.6703125 116.79296875 112.015625 C125.70499948 114.39386343 134.61710907 115.99623322 143.73828125 117.34765625 C146.87558164 117.81462535 149.9648517 118.37472611 153.0625 119.0625 C158.56844421 120.23605827 164.16316345 120.73838782 169.75805664 121.30297852 C170.50563232 121.37959717 171.25320801 121.45621582 172.0234375 121.53515625 C172.69294434 121.600979 173.36245117 121.66680176 174.05224609 121.73461914 C176 122 176 122 177.78979492 122.49511719 C193.87698719 126.16995576 212.14162884 124.28578513 228.5625 124.3125 C229.26133175 124.31394516 229.9601635 124.31539032 230.68017197 124.31687927 C250.86623687 124.35055397 270.65375474 123.93516663 290.61523438 120.56445312 C294.12762712 119.97871654 297.6447991 119.47344751 301.171875 118.984375 C313.0141301 117.31540442 324.46288343 115.13061217 336 112 C337.20269531 111.72800781 338.40539062 111.45601562 339.64453125 111.17578125 C368.72787878 104.55639937 400.81437556 92.2320064 424 73 C425.30710937 71.92105469 425.30710937 71.92105469 426.640625 70.8203125 C439.02341097 60.1468068 449.70688904 46.63135423 452 30 C452.36273667 24.81476723 452.50714319 19.63240731 452.625 14.4375 C452.6632657 13.03318119 452.70232212 11.62888369 452.7421875 10.22460938 C452.83588029 6.81653396 452.92160074 3.40845577 453 0 C455 0 455 0 457.28515625 2.09375 C470.92412864 16.69431901 479.87584661 31.8436181 479.375 52.35546875 C478.36192759 69.99378301 466.93869767 84.05328978 455 96 C454.23171875 96.79148437 453.4634375 97.58296875 452.671875 98.3984375 C435.93018079 114.61329518 411.81835125 126.37628658 390 133.875 C388.97326172 134.22868652 387.94652344 134.58237305 386.88867188 134.94677734 C384.84417962 135.65001329 382.7992685 136.35203285 380.75390625 137.05273438 C378.48827169 137.83204839 376.22739359 138.62262638 373.96875 139.421875 C365.26087531 142.44217388 356.43917721 144.7910015 347.50195312 147.03369141 C346.54482422 147.27522949 345.58769531 147.51676758 344.6015625 147.765625 C343.73869629 147.97993164 342.87583008 148.19423828 341.98681641 148.41503906 C340.0179801 148.82248429 340.0179801 148.82248429 339 150 C337.15286669 150.35169418 335.29661899 150.65595632 333.4375 150.9375 C329.9600673 151.46465222 326.62750695 152.09620172 323.21875 152.9765625 C318.54724333 154.17717036 313.83928835 154.80782239 309.0625 155.4375 C301.49116459 156.44034879 301.49116459 156.44034879 293.9765625 157.7890625 C270.68331841 162.54376593 246.54278809 162.18166512 222.875 162.1875 C221.7940506 162.18849701 220.7131012 162.18949402 219.59939575 162.19052124 C190.68392936 162.18749963 190.68392936 162.18749963 182.56469727 160.49121094 C179.4180667 159.88854357 176.34426633 159.74826782 173.14453125 159.58984375 C165.22595524 159.12876365 157.49988695 157.93316431 149.6875 156.5625 C148.40810547 156.34529297 147.12871094 156.12808594 145.81054688 155.90429688 C125.94575609 152.50328128 106.36775986 147.95736497 87 142.375 C86.02853027 142.09825439 85.05706055 141.82150879 84.05615234 141.53637695 C78.83482529 140.00050548 73.9067232 138.21292654 68.98486328 135.88452148 C66.97656459 134.9895564 64.97938384 134.31913136 62.875 133.6875 C55.9705255 131.44949792 49.49816811 128.19896207 43 125 C42.25363281 124.63487305 41.50726563 124.26974609 40.73828125 123.89355469 C24.65266905 115.95178887 9.91391533 106.54773625 -3 94 C-3.63035156 93.41992188 -4.26070312 92.83984375 -4.91015625 92.2421875 C-13.68145998 83.95282353 -24.15668541 69.3372921 -25.17700195 56.83032227 C-25.65241231 37.32713319 -22.61663669 22.3362201 -9.00390625 7.66796875 C-1.56630051 0 -1.56630051 0 0 0 Z " fill="#0A8488" transform="translate(88,458)"/>
<path d="M0 0 C2 0 2 0 4.2578125 2.21484375 C5.16273437 3.13394531 6.06765625 4.05304688 7 5 C27.45837388 21.81550104 53.12135552 31.76601681 78 40 C78.67804688 40.2254248 79.35609375 40.45084961 80.0546875 40.68310547 C104.66200708 48.72442597 130.32065086 53.24492086 156 56 C157.01658691 56.11714355 158.03317383 56.23428711 159.08056641 56.35498047 C176.05373085 58.252794 193.06830519 58.17875724 210.125 58.1875 C211.84990158 58.18913147 211.84990158 58.18913147 213.60964966 58.1907959 C243.10524603 58.18763924 272.08820802 56.12130211 301 50 C302.9374559 49.6026495 304.87495732 49.2055209 306.8125 48.80859375 C318.39536467 46.40145521 329.7476122 43.65069845 341 40 C342.03866211 39.6690332 343.07732422 39.33806641 344.14746094 38.99707031 C368.87558863 31.05595191 393.29823457 21.6496912 413.625 5.0625 C419.88529412 0 419.88529412 0 421 0 C421.17409588 4.98029015 421.30055003 9.95878001 421.38452148 14.94140625 C421.41955043 16.63312663 421.46719144 18.32463774 421.52807617 20.015625 C422.08474936 35.88314975 422.08474936 35.88314975 417.7578125 40.87890625 C416.53932614 41.95902969 415.28929839 43.00547231 414 44 C412.82244141 45.20462891 412.82244141 45.20462891 411.62109375 46.43359375 C404.96116802 52.5454755 397.75784428 57.42660736 390 62 C389.41621582 62.34417969 388.83243164 62.68835938 388.23095703 63.04296875 C378.45429081 68.71186047 368.19613806 72.9730633 357.64550781 76.98217773 C355.76756955 77.70468831 353.89782367 78.44865508 352.03417969 79.20727539 C343.6850734 82.55754963 335.22813219 84.95472819 326.5 87.0625 C325.79470154 87.2346402 325.08940308 87.4067804 324.36273193 87.58413696 C319.58125061 88.74958854 314.79297155 89.88276596 310 91 C309.06188477 91.22075195 308.12376953 91.44150391 307.15722656 91.66894531 C294.20205513 94.64098343 280.99190749 96.09248418 267.8125 97.6875 C266.91911926 97.79645599 266.02573853 97.90541199 265.10528564 98.01766968 C247.47910523 100.14640512 230.00128825 101.19748341 212.25 101.125 C211.14615967 101.12167664 211.14615967 101.12167664 210.02001953 101.11828613 C173.31847268 100.98977932 137.01734101 97.09734049 101.1875 89 C100.13175781 88.76297363 99.07601562 88.52594727 97.98828125 88.28173828 C91.94332575 86.86567285 86.18944582 85.08452021 80.38305664 82.88818359 C77.66572745 81.87541404 74.92106502 81.07837868 72.125 80.3125 C48.21059961 73.02187023 13.44007243 58.43308471 0 36 C-0.64678295 33.15748086 -0.58731466 30.44212315 -0.48828125 27.5390625 C-0.48120651 26.74849457 -0.47413177 25.95792664 -0.46684265 25.1434021 C-0.43901463 22.63627567 -0.37630474 20.13144288 -0.3125 17.625 C-0.28740184 15.91800117 -0.26459133 14.21096708 -0.24414062 12.50390625 C-0.18922691 8.33506352 -0.10304076 4.16791962 0 0 Z " fill="#0C8689" transform="translate(104,281)"/>
<path d="M0 0 C3.55793883 1.68054043 6.01439101 3.72231079 8.9375 6.375 C26.53534093 21.58912571 49.74405877 30.9444231 71.59033203 38.18847656 C73.81099688 38.93634788 76.01357219 39.72060239 78.21484375 40.5234375 C98.46003403 47.80107332 119.54613027 51.94193858 140.8125 54.8125 C141.53917877 54.91168732 142.26585754 55.01087463 143.01455688 55.11306763 C165.4596419 58.12903751 187.86099409 59.38619928 210.5 59.3125 C211.67321808 59.31067719 212.84643616 59.30885437 214.0552063 59.30697632 C246.14279063 59.22345387 279.52351999 57.57528721 310.55224609 48.67822266 C315.18024436 47.39589878 319.89721079 46.61815625 324.6171875 45.74609375 C327.63397824 45.08072766 330.15598617 44.16688867 333 43 C336.6274717 42.0133277 340.27034115 41.10435477 343.91796875 40.1953125 C348.7731815 38.86653006 353.35631254 36.92482262 358 35 C359.89956882 34.23395143 361.79931397 33.46833996 363.69921875 32.703125 C381.81373681 25.31858613 399.3251269 17.461229 414.1875 4.4375 C417 2 417 2 419 2 C419 1.34 419 0.68 419 0 C419.66 0 420.32 0 421 0 C421.17432636 4.9619795 421.30065639 9.92214051 421.38452148 14.88647461 C421.41951243 16.57136112 421.46712421 18.25603835 421.52807617 19.94018555 C422.08463558 35.72495877 422.08463558 35.72495877 417.78515625 41.3828125 C415.85180664 43.37182617 415.85180664 43.37182617 414 45 C413.154375 45.82371094 412.30875 46.64742188 411.4375 47.49609375 C408.65658289 49.71102292 405.85379874 51.87941907 403 54 C401.43378906 55.17175781 401.43378906 55.17175781 399.8359375 56.3671875 C361.2598382 84.11696511 309.86173669 94.55766833 263.375 99.125 C262.61388916 99.20057129 261.85277832 99.27614258 261.06860352 99.35400391 C244.0501528 100.91539433 227.0171893 101.20376215 209.9375 101.1875 C208.31834183 101.18709213 208.31834183 101.18709213 206.66647339 101.18667603 C191.66331312 101.1693201 176.79006008 100.95170949 161.86181641 99.31201172 C158.82046528 98.98042609 155.77657374 98.69454655 152.73046875 98.41015625 C108.82777613 94.08232992 56.96830269 83.28629859 21 56 C20.13632813 55.35546875 19.27265625 54.7109375 18.3828125 54.046875 C11.63543875 48.83765636 4.75667973 43.1350196 0 36 C-0.17177775 33.24213585 -0.23216238 30.58784476 -0.1953125 27.83203125 C-0.1924826 27.03721848 -0.18965271 26.2424057 -0.18673706 25.42350769 C-0.17554705 22.88635162 -0.15044491 20.34954928 -0.125 17.8125 C-0.11496866 16.09180198 -0.10584308 14.37109841 -0.09765625 12.65039062 C-0.07561161 8.43345757 -0.04109006 4.21678875 0 0 Z " fill="#0B8588" transform="translate(104,398)"/>
<path d="M0 0 C3.28264931 1.44637276 5.54308431 3.27241237 8.14453125 5.7265625 C12.69786264 9.84602208 17.45550322 13.17825347 22.6875 16.375 C23.58960205 16.92808838 24.4917041 17.48117676 25.42114258 18.05102539 C40.08335499 26.83671114 55.63765635 33.32957483 71.94384766 38.35888672 C74.20293548 39.06327577 76.45208061 39.79353109 78.69921875 40.53515625 C79.40264404 40.76726807 80.10606934 40.99937988 80.83081055 41.23852539 C82.34697755 41.77076229 83.84409836 42.35905677 85.32275391 42.98803711 C88.55342989 44.20918903 91.76048286 44.92728751 95.13671875 45.65625 C95.81620071 45.80404907 96.49568268 45.95184814 97.195755 46.10412598 C99.35881237 46.57348893 101.52312817 47.03674086 103.6875 47.5 C105.12182742 47.81081686 106.55607304 48.12201145 107.99023438 48.43359375 C114.58592099 49.86235978 121.18604974 51.25967433 127.80981445 52.55322266 C129.93852095 52.98745885 132.04367578 53.48599612 134.15625 53.9921875 C158.246245 59.335064 183.32851509 59.41099315 207.88143921 59.43434906 C209.96143888 59.43744265 212.04135873 59.44587446 214.12133789 59.4553833 C239.29643586 59.54813859 264.22111489 57.87762207 289 53.25 C289.68871185 53.1243869 290.37742371 52.9987738 291.08700562 52.86935425 C335.01692046 44.85340982 380.9002258 33.08791346 415.65429688 3.59619141 C419.9065246 0 419.9065246 0 421 0 C421.27491502 5.0492085 421.47283187 10.09394268 421.60424805 15.14892578 C421.65908643 16.86226355 421.73379762 18.57509821 421.82983398 20.28662109 C422.68827141 35.99556688 422.68827141 35.99556688 417.35452271 42.34483337 C415.02943406 44.7556483 412.59619334 46.8788643 410 49 C409.35329346 49.56348145 408.70658691 50.12696289 408.0402832 50.70751953 C406.53244581 51.95474024 404.92399573 53.07744836 403.3125 54.1875 C402.4472168 54.78365112 402.4472168 54.78365112 401.56445312 55.3918457 C395.24351847 59.66016669 388.62116386 63.4024786 381.89355469 66.98583984 C380.18068431 67.90322813 378.48380591 68.85032296 376.7890625 69.80078125 C362.57960631 77.4317855 346.63879162 82.41101478 331.0534668 86.39550781 C329.02616249 86.81428983 329.02616249 86.81428983 328 88 C325.32950413 88.54137821 322.64630024 88.96455577 319.95703125 89.40234375 C316.97281561 89.93820417 316.97281561 89.93820417 314.08984375 91 C310.63896824 92.11684467 307.34585573 92.60727997 303.75 93.0625 C299.22248603 93.52287478 299.22248603 93.52287478 295 95 C287.74777316 96.38562432 280.32219534 97.07724191 273 98 C271.93566238 98.13446533 270.87132477 98.26893066 269.7747345 98.4074707 C251.07175781 100.70775208 232.62260669 101.44793344 213.79797363 101.3225708 C211.05917858 101.30910292 208.32054516 101.31441871 205.5817318 101.31944561 C179.70432173 101.35503465 154.074147 100.0170453 128.6953125 94.71875 C125.07478573 94.01454606 121.46859767 93.48212277 117.8125 93 C111.38188853 92.11722633 105.26295016 90.67835439 99 89 C97.56563839 88.64497007 96.13069854 88.29227144 94.6953125 87.94140625 C83.13005577 85.07332881 72.07909708 81.37105002 61 77 C60.21625 76.69723145 59.4325 76.39446289 58.625 76.08251953 C41.54527766 69.44937901 25.79986882 61.15401291 12 49 C11.24589844 48.46375 10.49179688 47.9275 9.71484375 47.375 C9.14894531 46.92125 8.58304688 46.4675 8 46 C8 45.34 8 44.68 8 44 C7.01 43.67 6.02 43.34 5 43 C1.72857078 39.82778342 -0.27618705 36.47884067 -0.56762695 31.90063477 C-0.56684741 30.41399018 -0.53931412 28.92717487 -0.48828125 27.44140625 C-0.48120651 26.65225327 -0.47413177 25.86310028 -0.46684265 25.05003357 C-0.43906705 22.55318503 -0.37636813 20.05865944 -0.3125 17.5625 C-0.28739502 15.86005865 -0.26458572 14.15758181 -0.24414062 12.45507812 C-0.18929671 8.30250347 -0.10314841 4.15164422 0 0 Z " fill="#0B8589" transform="translate(104,339)"/>
<path d="M0 0 C0.66 0 1.32 0 2 0 C3.12371678 1.12371678 4.24396546 2.25101648 5.3515625 3.390625 C56.99229242 53.80764094 151.20184968 60.8063979 219.1015625 60.19140625 C232.12417621 60.03514511 245.03946681 59.30592839 258 58 C259.07620605 57.89816406 260.15241211 57.79632812 261.26123047 57.69140625 C277.71197367 56.11283649 293.85482772 53.52094599 310 50 C311.11600586 49.75797852 312.23201172 49.51595703 313.38183594 49.26660156 C337.4830808 43.92375784 360.37027047 35.91530339 382.625 25.3125 C383.6962915 24.80251465 384.76758301 24.2925293 385.87133789 23.76708984 C396.14103747 18.71096446 405.62410526 12.60952474 414.1875 5 C419.89330475 0 419.89330475 0 421 0 C421.81165534 17.6091747 420.33676507 29.79921007 409 44 C408.15888672 45.10408203 408.15888672 45.10408203 407.30078125 46.23046875 C375.11641066 85.67552164 306.36033867 95.34319227 259.4375 100.1875 C256.29349323 100.48382663 253.14797533 100.74966263 250 101 C249.30406738 101.05784668 248.60813477 101.11569336 247.89111328 101.17529297 C176.19236231 106.86192019 82.55009447 102.51722849 24.1875 55.74609375 C12.01581699 45.07731672 1.96219537 33.52900169 0 17 C-0.11015791 14.01899889 -0.09572384 11.04497854 -0.0625 8.0625 C-0.05798828 7.28326172 -0.05347656 6.50402344 -0.04882812 5.70117188 C-0.03716908 3.80074732 -0.01923877 1.90036294 0 0 Z " fill="#0B8488" transform="translate(104,456)"/>
<path d="M0 0 C3.99394041 3.79639067 7.0025415 7.45856391 8 13 C8.08980997 20.10781799 6.29139404 24.53006335 1.34375 29.74609375 C-12.65072959 43.08099745 -36.68711012 47.13470072 -55.375 47.375 C-75.5663956 46.73759342 -97.03350292 43.22917009 -112.3359375 28.83984375 C-116.44330138 24.2986034 -118.36182912 20.1859765 -118.125 14 C-116.91475754 6.32729781 -112.42248474 1.83107153 -106.375 -2.6875 C-77.46885705 -21.68420173 -27.46847497 -22.30113809 0 0 Z " fill="#000101" transform="translate(369,165)"/>
<path d="M0 0 C8.74507107 -0.10621544 17.30019136 -0.01286753 26 1 C26 1.66 26 2.32 26 3 C28.64 3 31.28 3 34 3 C34 3.33 34 3.66 34 4 C26.12987215 4.20984417 18.59988279 3.60891532 10.8125 2.5 C9.76513672 2.35691406 8.71777344 2.21382813 7.63867188 2.06640625 C5.09146764 1.71747416 2.54538398 1.36193031 0 1 C0 0.67 0 0.34 0 0 Z " fill="#0E7070" transform="translate(244,435)"/>
<path d="M0 0 C2 0 2 0 4.4375 2.25 C6.47004286 4.4312655 8.28819148 6.56743 10 9 C6.93224489 7.57568513 4.78959901 6.09219926 2 4 C2 7.3 2 10.6 2 14 C1.34 13.67 0.68 13.34 0 13 C0 8.71 0 4.42 0 0 Z " fill="#0B8E90" transform="translate(104,456)"/>
<path d="M0 0 C2 0 2 0 4.5 2.3125 C7 5 7 5 9 8 C7 7 5 6 3 5 C2.87625 5.969375 2.7525 6.93875 2.625 7.9375 C2.41875 8.948125 2.2125 9.95875 2 11 C1.01 11.495 1.01 11.495 0 12 C0 8.04 0 4.08 0 0 Z " fill="#0C8F91" transform="translate(104,281)"/>
<path d="M0 0 C3.23475448 1.61737724 4.70572021 2.47629223 7 5 C6 7 6 7 2.9375 8.125 C1.968125 8.41375 0.99875 8.7025 0 9 C0 6.03 0 3.06 0 0 Z " fill="#098E92" transform="translate(104,398)"/>
<path d="M0 0 C0 0.66 0 1.32 0 2 C-0.99 2 -1.98 2 -3 2 C-3.33 2.99 -3.66 3.98 -4 5 C-6.31 5.33 -8.62 5.66 -11 6 C-3.28571429 0 -3.28571429 0 0 0 Z " fill="#0C7577" transform="translate(501,416)"/>
<path d="M0 0 C-3.1679406 1.87729813 -5.35668477 2.09587672 -9 2 C-9.99 2.495 -9.99 2.495 -11 3 C-12.67654729 2.72057545 -14.34608154 2.39171753 -16 2 C-16 1.67 -16 1.34 -16 1 C-14.0852312 0.63571223 -12.16807707 0.28394694 -10.25 -0.0625 C-9.18265625 -0.25972656 -8.1153125 -0.45695312 -7.015625 -0.66015625 C-4.25228095 -0.97156937 -2.59053383 -0.8991416 0 0 Z " fill="#096466" transform="translate(392,394)"/>
<path d="M0 0 C3.3 0.33 6.6 0.66 10 1 C10 1.33 10 1.66 10 2 C6.37 2.33 2.74 2.66 -1 3 C-0.67 2.01 -0.34 1.02 0 0 Z " fill="#0A6D6F" transform="translate(387,303)"/>
</svg>
